<svg xmlns="http://www.w3.org/2000/svg" xmlns:xlink="http://www.w3.org/1999/xlink" id="Layer_1" x="0px" y="0px" viewBox="0 0 500 43.1" style="enable-background:new 0 0 500 43.1;" xml:space="preserve"><style type="text/css">	.st0{fill:#8C7D7B;}	.st1{fill:#F7932C;}	.st2{fill:#8C7D7B;stroke:#8C7D7B;stroke-width:0.92;stroke-miterlimit:10;}	.st3{fill:none;stroke:#8C7D7B;stroke-width:0.51;stroke-miterlimit:10;}	.st4{fill:#FFFFFF;stroke:#8C7D7B;stroke-width:1.03;stroke-miterlimit:10;}</style><g>	<path class="st0" d="M9.4,5.8L0,5.9V2.2L22.8,2v3.7l-9.3,0.1L13.9,43H9.8C9.8,43,9.4,5.8,9.4,5.8z"></path>	<path class="st0" d="M25.5,1.9h3.9l0.1,14.5h0.1c1.1-1.8,4.1-4.7,9.2-4.7c3.7,0,6.8,0.9,9.6,3.6c2.3,2.2,3.8,5.6,3.9,10.6l0.2,16.6  h-3.9L48.4,26c0-3.9-1.3-6.7-3-8.3c-2.1-2-4.9-2.5-6.6-2.5c-1.7,0-4.5,0.6-6.5,2.7c-1.6,1.6-2.8,4.3-2.7,8l0.2,16.9h-3.9L25.5,1.9  L25.5,1.9L25.5,1.9z"></path>	<path class="st0" d="M61,28.8c0.3,5.9,5.9,10.9,11.8,10.8c5.5-0.2,9.4-3.5,10.8-7.2h4.1c-2,6-7.8,10.7-14.8,10.8  c-8.5,0.1-15.8-6.7-15.9-15.6c-0.1-8.6,6.8-15.8,15.5-16.1c6.6,0,11.4,3.9,13.6,7.6c1.8,2.9,2.4,5.8,2.5,8.4c0,0.4-0.1,0.7,0,1.1  L61,28.8L61,28.8z M84.6,25c-1.3-7.1-7.1-10.3-11.9-10.2C68,14.9,62.1,18.1,61,25.2L84.6,25L84.6,25L84.6,25z"></path>	<path class="st1" d="M91.6,0h22.5v7.2H99.3v10.2h14.1v7.2H99.3v9.9h14.8v7.2H91.6C91.6,41.9,91.6,0,91.6,0z"></path>	<path class="st1" d="M127.7,25.7L118,10.5h8.4l5.8,9.4l5.7-9.4h8.4l-9.7,15.2l11.3,16.2H139l-6.7-10.7l-6.7,10.7h-8.9L127.7,25.7  L127.7,25.7L127.7,25.7z"></path>	<path class="st1" d="M156.5,29.5c0.3,2,3.3,6.4,8.7,6.4c3.3,0,5.8-1.4,7.2-4h7.9c-1.8,5.6-7.8,10.9-15.2,10.9  c-9.6,0-16.6-7.5-16.6-16.6S155.1,9.4,165,9.4s16.2,8.4,16.2,16.3c0,1.5-0.2,2.8-0.4,3.8L156.5,29.5L156.5,29.5z M173.6,23.5  c-0.8-5-4.5-7.2-8.5-7.2c-3.1,0-7.5,1.4-8.9,7.2H173.6z"></path>	<path class="st1" d="M185.4,10.5h6.9v2.8h0.1c1.4-2,2.8-3.9,6.7-3.9h0.6v7.3c-6.8,0.3-6.8,5.6-6.8,7.5v17.6h-7.5V10.5L185.4,10.5  L185.4,10.5z"></path>	<path class="st1" d="M231.7,31.6c-2.5,7-8.4,11.3-15.7,11.3c-8,0-16.7-6.4-16.7-16.8c0-9.6,8-16.6,16.6-16.6  c4,0,12.6,1.8,15.8,11.5h-8.5c-0.9-1.6-2.7-4.6-7.3-4.6s-9.1,3.4-9.1,9.8c0,5.4,3.8,9.8,9.4,9.8c2.5,0,5-1.2,7-4.4H231.7  L231.7,31.6z"></path>	<path class="st1" d="M235.2,0h7.5v6.9h-7.5V0z M235.2,10.5h7.5v31.4h-7.5V10.5z"></path>	<path class="st1" d="M260.2,19c-0.5-2.5-2.2-2.7-3-2.7c-1.9,0-2.9,1.4-2.9,2.7c0,1.8,1.3,2.2,5.3,3.5c3.9,1.2,8.8,3.1,8.8,9.4  c0,7.1-5.6,11-11,11c-3.1,0-7-1.1-9.4-4.1c-1.9-2.4-2.2-4.9-2.4-6.8h7.7c0.3,1.4,1,4,4.1,4c2.4,0,3.4-1.9,3.4-3.2  c0-2.3-1.7-2.9-7.1-4.7c-3.6-1.2-7-3.9-7-9c0-6.1,5.5-9.7,10.5-9.7c4.7,0,10,3.4,10.2,9.6L260.2,19L260.2,19z"></path>	<path class="st1" d="M278,29.5c0.3,2,3.3,6.4,8.7,6.4c3.3,0,5.8-1.4,7.2-4h7.9c-1.8,5.6-7.8,10.9-15.2,10.9  c-9.6,0-16.6-7.5-16.6-16.6s6.6-16.8,16.5-16.8c10,0,16.2,8.4,16.2,16.3c0,1.5-0.2,2.8-0.4,3.8L278,29.5L278,29.5z M295.1,23.5  c-0.8-5-4.5-7.2-8.5-7.2c-3.1,0-7.5,1.4-8.9,7.2H295.1L295.1,23.5z"></path>	<path class="st0" d="M345,31.4c-4.4,8-12.3,11.4-18.8,11.4c-11.4,0-21.4-9-21.4-21.1s9.7-21.2,21.3-21.2c10.5,0,17.1,7.3,18.7,11.2  h-4.6C335.7,5,328.5,4.2,326,4.2c-9.6,0-17.2,8.4-17.2,17.5S317.2,39,326,39c2,0,8.7-0.3,14.3-7.7L345,31.4L345,31.4z"></path>	<path class="st0" d="M421.2,42.1h-3.9v-5.3h-0.1c-3.3,5-8.6,6-11.8,6c-9.5,0-16.2-7.2-16.2-15.9c0-8.1,6.4-15.8,16.2-15.8  c3.3,0,8.6,1.1,11.8,6.1h0.1v-5.3h3.9V42.1L421.2,42.1L421.2,42.1z M405.5,39.4c6.5,0,12.1-5.3,12.1-12.3c0-6.6-5.1-12.4-12.1-12.4  s-12.4,4.8-12.4,12.5C393.1,33.8,398,39.4,405.5,39.4L405.5,39.4z"></path>	<path class="st0" d="M457,33.2c-1.9,3.8-6,9.6-15,9.6c-9.1,0-16.2-7.3-16.2-15.8S433,11.1,442,11.1c5.3,0,12.1,2.7,15,9.9h-4.3  c-2.4-4.6-6.9-6.4-10.7-6.4c-5.9,0-12.5,4.4-12.5,12.3c0,6.8,5.3,12.4,12.5,12.4c6.3,0,9.4-3.8,10.7-6.1L457,33.2L457,33.2z"></path>	<path class="st0" d="M461.5,1.2h3.9v14.5h0.1c1.2-1.8,4.1-4.6,9.3-4.6c3.7,0,6.8,0.9,9.6,3.7c2.3,2.2,3.8,5.7,3.8,10.7v16.6h-3.9  V25.5c0-3.9-1.2-6.7-2.9-8.3c-2.1-2-4.9-2.6-6.6-2.6s-4.5,0.6-6.6,2.6c-1.6,1.5-2.8,4.3-2.8,8v16.9h-3.9V1.2L461.5,1.2z"></path>	<path class="st2" d="M369,6.5l-4.9,0.1l0.1,6.7l4.9-0.1C369.1,13.2,369,6.5,369,6.5z"></path>	<path class="st0" d="M356.7,8.1l-1.8,1.5l4.4,5.4l1.8-1.5L356.7,8.1z"></path>	<path class="st0" d="M353.5,10.3l0.4,0.5c0.3,0.4,0.8,0.4,1.2,0.1l2.8-2.3c0.4-0.3,0.4-0.8,0.1-1.2L357.6,7  c-0.3-0.4-0.8-0.4-1.2-0.1l-2.8,2.3C353.3,9.4,353.2,10,353.5,10.3z"></path>	<path class="st2" d="M350.5,16l-1.2,4.8l6.5,1.6l1.2-4.8C357.1,17.6,350.5,16,350.5,16z"></path>	<path class="st3" d="M359,12.4c2.4-1.9,3.2-5,1.7-6.9s-4.6-1.9-7.1,0c-2.4,1.9-3.2,5-1.7,6.9C353.5,14.3,356.6,14.3,359,12.4  L359,12.4z"></path>	<path class="st4" d="M367.7,42.6c9,0,16.2-7.3,16.2-16.2s-7.3-16.2-16.2-16.2c-9,0-16.2,7.3-16.2,16.2S358.7,42.6,367.7,42.6z"></path>	<path class="st1" d="M360.8,14.8l-1.4,1l2.3,3.1l1.4-1C363.1,17.8,360.8,14.8,360.8,14.8z"></path>	<path class="st1" d="M374.8,33.8l-1.4,1l2.3,3.1l1.4-1L374.8,33.8z"></path>	<path class="st1" d="M356.4,34l1,1.4l3.1-2.3l-1-1.4L356.4,34L356.4,34z"></path>	<path class="st1" d="M375.4,20l1,1.4l3.1-2.3l-1-1.4L375.4,20L375.4,20z"></path>	<path class="st1" d="M372.8,14.4l-0.2,0.4l-5.6,11l0.2,3.6l2.4-2.4L372.8,14.4L372.8,14.4z"></path>	<path class="st0" d="M490.1,38.2c0-0.9,0.2-1.7,0.7-2.5s1-1.4,1.8-1.8c0.8-0.4,1.6-0.7,2.5-0.7s1.7,0.2,2.5,0.7  c0.8,0.4,1.4,1,1.8,1.8s0.7,1.6,0.7,2.5s-0.2,1.7-0.6,2.4c-0.4,0.8-1,1.4-1.8,1.8s-1.6,0.7-2.5,0.7s-1.8-0.2-2.5-0.7  c-0.8-0.5-1.4-1.1-1.8-1.8C490.3,39.9,490.1,39,490.1,38.2L490.1,38.2z M490.8,38.2c0,0.8,0.2,1.5,0.6,2.1c0.4,0.7,0.9,1.2,1.6,1.6  c0.7,0.4,1.4,0.6,2.1,0.6s1.5-0.2,2.1-0.6c0.7-0.4,1.2-0.9,1.6-1.6s0.6-1.4,0.6-2.1s-0.2-1.5-0.6-2.1c-0.4-0.7-0.9-1.2-1.6-1.6  s-1.4-0.6-2.1-0.6c-0.8,0-1.5,0.2-2.1,0.6c-0.7,0.4-1.2,0.9-1.6,1.6S490.8,37.4,490.8,38.2L490.8,38.2z M497.1,37  c0,0.3-0.1,0.7-0.3,0.9c-0.2,0.3-0.4,0.5-0.8,0.6l1.6,2.6h-1.1l-1.4-2.3h-0.9v2.3h-1v-5.9h1.7c0.7,0,1.3,0.1,1.6,0.4  S497,36.4,497.1,37L497.1,37z M494.2,38h0.7c0.3,0,0.6-0.1,0.8-0.3c0.2-0.2,0.3-0.4,0.3-0.7s-0.1-0.6-0.3-0.7  c-0.2-0.1-0.5-0.2-0.9-0.2h-0.7L494.2,38L494.2,38z"></path></g></svg>